<svg width="127" height="72" viewBox="0 0 127 72" fill="none" xmlns="http://www.w3.org/2000/svg">
<circle cx="30.1997" cy="33.1997" r="9.19968" stroke="white" stroke-width="2"/>
<path d="M51.3432 39.213H57.4117V41.6867H48.3994V23H51.3432V39.213Z" fill="white"/>
<path d="M66.0453 41.9286C64.7025 41.9286 63.4888 41.615 62.4042 40.9876C61.3196 40.3423 60.4675 39.4461 59.8477 38.2989C59.228 37.1337 58.9181 35.7894 58.9181 34.2658C58.9181 32.7601 59.2366 31.4247 59.8735 30.2596C60.5105 29.0945 61.3799 28.1982 62.4817 27.5708C63.5835 26.9435 64.8144 26.6298 66.1744 26.6298C67.5344 26.6298 68.7653 26.9435 69.8671 27.5708C70.9689 28.1982 71.8383 29.0945 72.4753 30.2596C73.1122 31.4247 73.4307 32.7601 73.4307 34.2658C73.4307 35.7715 73.1036 37.1069 72.4494 38.272C71.7953 39.4371 70.9 40.3423 69.7638 40.9876C68.6448 41.615 67.4053 41.9286 66.0453 41.9286ZM66.0453 39.2668C66.8028 39.2668 67.5086 39.0786 68.1628 38.7022C68.8342 38.3258 69.3765 37.7611 69.7896 37.0083C70.2028 36.2554 70.4094 35.3413 70.4094 34.2658C70.4094 33.1903 70.2114 32.2851 69.8155 31.5502C69.4195 30.7973 68.8944 30.2327 68.2403 29.8563C67.5861 29.4798 66.8802 29.2916 66.1228 29.2916C65.3653 29.2916 64.6594 29.4798 64.0052 29.8563C63.3683 30.2327 62.8604 30.7973 62.4817 31.5502C62.1029 32.2851 61.9136 33.1903 61.9136 34.2658C61.9136 35.8611 62.3009 37.0979 63.0756 37.9762C63.8675 38.8366 64.8574 39.2668 66.0453 39.2668Z" fill="white"/>
<path d="M82.0736 26.6298C83.1754 26.6298 84.1481 26.8628 84.9917 27.3289C85.8524 27.777 86.5238 28.3416 87.0059 29.0228V26.8718H89.9755V41.9286C89.9755 43.2909 89.7001 44.5009 89.1492 45.5584C88.5983 46.6339 87.7978 47.4764 86.7476 48.0858C85.7147 48.6953 84.4752 49 83.0291 49C81.101 49 79.4999 48.525 78.226 47.575C76.952 46.6429 76.229 45.3702 76.0568 43.757H78.9748C79.1986 44.5277 79.6721 45.1462 80.3951 45.6122C81.1354 46.0962 82.0134 46.3382 83.0291 46.3382C84.217 46.3382 85.1724 45.9617 85.8955 45.2089C86.6357 44.4561 87.0059 43.3626 87.0059 41.9286V39.455C86.5066 40.1541 85.8266 40.7456 84.9658 41.2296C84.1223 41.6956 83.1582 41.9286 82.0736 41.9286C80.8341 41.9286 79.6979 41.606 78.665 40.9607C77.6493 40.2975 76.8401 39.3833 76.2376 38.2182C75.6523 37.0352 75.3596 35.6998 75.3596 34.212C75.3596 32.7242 75.6523 31.4068 76.2376 30.2596C76.8401 29.1124 77.6493 28.2251 78.665 27.5977C79.6979 26.9524 80.8341 26.6298 82.0736 26.6298ZM87.0059 34.2658C87.0059 33.2441 86.7993 32.3568 86.3861 31.6039C85.9902 30.8511 85.4651 30.2775 84.8109 29.8831C84.1567 29.4888 83.4509 29.2916 82.6934 29.2916C81.9359 29.2916 81.2301 29.4888 80.5759 29.8831C79.9217 30.2596 79.388 30.8242 78.9748 31.577C78.5789 32.312 78.3809 33.1903 78.3809 34.212C78.3809 35.2337 78.5789 36.13 78.9748 36.9007C79.388 37.6715 79.9217 38.263 80.5759 38.6753C81.2473 39.0696 81.9531 39.2668 82.6934 39.2668C83.4509 39.2668 84.1567 39.0696 84.8109 38.6753C85.4651 38.2809 85.9902 37.7073 86.3861 36.9545C86.7993 36.1837 87.0059 35.2875 87.0059 34.2658Z" fill="white"/>
<path d="M99.6146 41.9286C98.2718 41.9286 97.0581 41.615 95.9735 40.9876C94.8889 40.3423 94.0367 39.4461 93.417 38.2989C92.7972 37.1337 92.4874 35.7894 92.4874 34.2658C92.4874 32.7601 92.8058 31.4247 93.4428 30.2596C94.0798 29.0945 94.9492 28.1982 96.051 27.5708C97.1527 26.9435 98.3837 26.6298 99.7437 26.6298C101.104 26.6298 102.335 26.9435 103.436 27.5708C104.538 28.1982 105.408 29.0945 106.045 30.2596C106.682 31.4247 107 32.7601 107 34.2658C107 35.7715 106.673 37.1069 106.019 38.272C105.365 39.4371 104.469 40.3423 103.333 40.9876C102.214 41.615 100.975 41.9286 99.6146 41.9286ZM99.6146 39.2668C100.372 39.2668 101.078 39.0786 101.732 38.7022C102.403 38.3258 102.946 37.7611 103.359 37.0083C103.772 36.2554 103.979 35.3413 103.979 34.2658C103.979 33.1903 103.781 32.2851 103.385 31.5502C102.989 30.7973 102.464 30.2327 101.81 29.8563C101.155 29.4798 100.45 29.2916 99.692 29.2916C98.9345 29.2916 98.2287 29.4798 97.5745 29.8563C96.9376 30.2327 96.4297 30.7973 96.051 31.5502C95.6722 32.2851 95.4828 33.1903 95.4828 34.2658C95.4828 35.8611 95.8702 37.0979 96.6449 37.9762C97.4368 38.8366 98.4267 39.2668 99.6146 39.2668Z" fill="white"/>
</svg>
